<?xml version="1.0" encoding="UTF-8" standalone="no"?>
<!DOCTYPE svg PUBLIC "-//W3C//DTD SVG 1.1//EN" "http://www.w3.org/Graphics/SVG/1.1/DTD/svg11.dtd">
<svg width="100%" height="100%" viewBox="0 0 16 16" version="1.1" xmlns="http://www.w3.org/2000/svg" xmlns:xlink="http://www.w3.org/1999/xlink" xml:space="preserve" xmlns:serif="http://www.serif.com/" style="fill-rule:evenodd;clip-rule:evenodd;stroke-linejoin:round;stroke-miterlimit:2;">
    <g transform="matrix(0.0243511,0,0,0.0243511,-4.45513,-4.26209)">
        <g id="Ebene1">
            <path d="M501,373.444L501,416.887L508.5,443.599C512.625,458.291 516,470.942 516,471.713C516,472.738 514.896,473.032 511.893,472.807C507.993,472.515 507.713,472.273 506.324,468C503.397,458.996 495.031,443.347 489.753,437C480.137,425.437 468.891,417.671 455.5,413.344C444.791,409.884 426.68,409.052 413.192,411.4C388.528,415.693 371.891,426.976 357.072,449.46C342.925,470.925 337.123,495.312 338.302,528.356C339.631,565.602 350.324,592.096 372.316,612.634C381.129,620.865 393.898,627.797 406.5,631.193C417.426,634.137 442.218,634.388 452,631.654C476.766,624.733 496.363,605.115 505.431,578.168L507.674,571.5L511.837,571.193C514.917,570.965 516,571.256 516,572.31C516,573.672 510.179,594.736 501.37,625.25C500.896,626.893 502.986,627 535.433,627L570,627L570,330L501,330L501,373.444M217.618,396.112C211.327,397.589 201.926,403.129 196.528,408.541C178.777,426.337 178.681,455.208 196.314,472.934C219.306,496.046 256.792,489.703 270.736,460.341C273.898,453.682 274.461,451.399 274.827,443.728C275.715,425.161 267.557,409.856 251.875,400.667C243.273,395.627 228.213,393.625 217.618,396.112M698.5,411.575C661.943,417.186 630.733,438.721 615.596,468.778C609.415,481.051 604.002,506.151 604.009,522.5C604.022,552.55 619.233,588.959 638.717,605.58C659.7,623.48 684.846,632.507 717,633.683C754.136,635.041 784.99,624.908 807.316,604.023C824.346,588.093 835.404,565.588 838.934,539.678C842.784,511.423 836.113,479.276 821.735,456.8C806.968,433.715 777.641,416.227 745.872,411.561C732.987,409.669 710.879,409.675 698.5,411.575M711,468.403C702.93,470.215 696.474,473.667 690.076,479.59C679.378,489.494 675.662,500.275 675.628,521.5C675.605,536.247 676.932,543.825 681.072,552.589C688.745,568.831 709.235,578.268 730.195,575.213C740.571,573.7 747.643,570.396 754.614,563.804C765.711,553.311 769.457,541.413 768.722,519C768.055,498.659 764.33,488.818 753.818,479.622C741.293,468.666 726.772,464.861 711,468.403M438.597,469.943C420.285,475.947 409.748,492.844 408.316,518.5C407.27,537.246 412.56,554.147 422.696,564.439C431.245,573.12 442.071,576.585 457.996,575.738C471.152,575.038 477.695,572.383 485.575,564.544C496.224,553.95 500.949,540.72 500.983,521.41C501.023,497.739 491.051,479.032 474.218,471.2C469.182,468.857 467.068,468.508 456.5,468.273C446.815,468.059 443.361,468.381 438.597,469.943M214.549,547.113C187.971,556.253 175.815,585.271 187.789,611C191.178,618.283 201.758,628.833 209.163,632.314C232.48,643.275 259.75,633.473 270.827,610.15C273.962,603.548 274.478,601.39 274.826,593.429C275.602,575.699 268.274,561.16 253.922,551.95C242.992,544.936 226.701,542.935 214.549,547.113"/>
        </g>
    </g>
</svg>
